<svg width="21" height="23" viewBox="0 0 21 23" fill="none" xmlns="http://www.w3.org/2000/svg">
    <path fill-rule="evenodd" clip-rule="evenodd" d="M1.75 6.00001C1.75 5.49375 2.14175 5.08334 2.625 5.08334H18.375C18.8582 5.08334 19.25 5.49375 19.25 6.00001C19.25 6.50627 18.8582 6.91668 18.375 6.91668H2.625C2.14175 6.91668 1.75 6.50627 1.75 6.00001Z" fill="black"/>
    <path fill-rule="evenodd" clip-rule="evenodd" d="M8.75 3.24999C8.51794 3.24999 8.29538 3.34657 8.13128 3.51848C7.96719 3.69038 7.875 3.92354 7.875 4.16666V5.99999C7.875 6.50625 7.48325 6.91666 7 6.91666C6.51675 6.91666 6.125 6.50625 6.125 5.99999V4.16666C6.125 3.43731 6.40156 2.73784 6.89385 2.22211C7.38613 1.70639 8.05381 1.41666 8.75 1.41666H12.25C12.9462 1.41666 13.6139 1.70639 14.1062 2.22211C14.5984 2.73784 14.875 3.43731 14.875 4.16666V5.99999C14.875 6.50625 14.4832 6.91666 14 6.91666C13.5168 6.91666 13.125 6.50625 13.125 5.99999V4.16666C13.125 3.92354 13.0328 3.69038 12.8687 3.51848C12.7046 3.34657 12.4821 3.24999 12.25 3.24999H8.75ZM4.375 5.08332C4.85825 5.08332 5.25 5.49373 5.25 5.99999V18.8333C5.25 19.0764 5.34219 19.3096 5.50628 19.4815C5.67038 19.6534 5.89294 19.75 6.125 19.75H14.875C15.1071 19.75 15.3296 19.6534 15.4937 19.4815C15.6578 19.3096 15.75 19.0764 15.75 18.8333V5.99999C15.75 5.49373 16.1418 5.08332 16.625 5.08332C17.1082 5.08332 17.5 5.49373 17.5 5.99999V18.8333C17.5 19.5627 17.2234 20.2621 16.7312 20.7779C16.2389 21.2936 15.5712 21.5833 14.875 21.5833H6.125C5.42881 21.5833 4.76113 21.2936 4.26884 20.7779C3.77656 20.2621 3.5 19.5627 3.5 18.8333V5.99999C3.5 5.49373 3.89175 5.08332 4.375 5.08332Z" fill="black"/>
    <path fill-rule="evenodd" clip-rule="evenodd" d="M8.75 9.66666C9.23325 9.66666 9.625 10.0771 9.625 10.5833V16.0833C9.625 16.5896 9.23325 17 8.75 17C8.26675 17 7.875 16.5896 7.875 16.0833V10.5833C7.875 10.0771 8.26675 9.66666 8.75 9.66666Z" fill="black"/>
    <path fill-rule="evenodd" clip-rule="evenodd" d="M12.25 9.66666C12.7332 9.66666 13.125 10.0771 13.125 10.5833V16.0833C13.125 16.5896 12.7332 17 12.25 17C11.7668 17 11.375 16.5896 11.375 16.0833V10.5833C11.375 10.0771 11.7668 9.66666 12.25 9.66666Z" fill="black"/>
</svg>
